<svg width="21" height="18" viewBox="0 0 21 18" fill="none" xmlns="http://www.w3.org/2000/svg">
<path fill-rule="evenodd" clip-rule="evenodd" d="M0.0999756 1.0001C0.0999756 0.503041 0.502919 0.100098 0.999976 0.100098H19.6603C20.1574 0.100098 20.5603 0.503041 20.5603 1.0001C20.5603 1.49715 20.1574 1.9001 19.6603 1.9001H0.999976C0.502919 1.9001 0.0999756 1.49715 0.0999756 1.0001Z" fill="white"/>
<path fill-rule="evenodd" clip-rule="evenodd" d="M0.0999756 8.77524C0.0999756 8.27819 0.502919 7.87524 0.999976 7.87524H19.6603C20.1574 7.87524 20.5603 8.27819 20.5603 8.77524C20.5603 9.2723 20.1574 9.67524 19.6603 9.67524H0.999976C0.502919 9.67524 0.0999756 9.2723 0.0999756 8.77524Z" fill="white"/>
<path fill-rule="evenodd" clip-rule="evenodd" d="M0.0999756 16.5504C0.0999756 16.0533 0.502919 15.6504 0.999976 15.6504H19.6603C20.1574 15.6504 20.5603 16.0533 20.5603 16.5504C20.5603 17.0474 20.1574 17.4504 19.6603 17.4504H0.999976C0.502919 17.4504 0.0999756 17.0474 0.0999756 16.5504Z" fill="white"/>
</svg>
