<svg width="28" height="30" viewBox="0 0 28 30" fill="none" xmlns="http://www.w3.org/2000/svg">
<path fill-rule="evenodd" clip-rule="evenodd" d="M8.07555 1C8.07555 0.447715 8.52326 0 9.07555 0H18.9247C19.477 0 19.9247 0.447715 19.9247 1V12.6765H24.3304C24.7365 12.6765 25.1023 12.9221 25.256 13.298C25.4097 13.6739 25.3209 14.1055 25.0311 14.39L14.7008 24.535C14.3118 24.917 13.6885 24.917 13.2995 24.535L2.96918 14.39C2.67943 14.1055 2.59054 13.6739 2.74425 13.298C2.89796 12.9221 3.26374 12.6765 3.66985 12.6765H8.07555V1ZM10.0755 2V13.6765C10.0755 14.2288 9.62783 14.6765 9.07555 14.6765H6.11531L14.0001 22.4199L21.885 14.6765H18.9247C18.3725 14.6765 17.9247 14.2288 17.9247 13.6765V2H10.0755Z" fill="white"/>
<path fill-rule="evenodd" clip-rule="evenodd" d="M0.878021 28.9629C0.878021 28.4106 1.32574 27.9629 1.87802 27.9629H26.1222C26.6745 27.9629 27.1222 28.4106 27.1222 28.9629C27.1222 29.5152 26.6745 29.9629 26.1222 29.9629H1.87802C1.32574 29.9629 0.878021 29.5152 0.878021 28.9629Z" fill="white"/>
</svg>
