<svg width="31" height="16" viewBox="0 0 31 16" fill="none" xmlns="http://www.w3.org/2000/svg">
<path fill-rule="evenodd" clip-rule="evenodd" d="M2.4816 8.14134C5.17844 11.3575 9.94936 13.5256 15.5798 13.5256C21.2287 13.5256 25.8888 11.4714 28.5222 8.16872C25.797 4.79514 21.2861 2 15.7605 2C10.1849 2 5.18532 4.71317 2.4816 8.14134ZM0.403396 7.58735C3.36406 3.33425 9.23329 0 15.7605 0C22.3387 0 27.6072 3.51315 30.5826 7.56697C30.8356 7.91166 30.8415 8.37907 30.5972 8.72999C27.595 13.0428 22.0248 15.5256 15.5798 15.5256C9.12104 15.5256 3.46303 12.8951 0.418239 8.75075C0.164981 8.40603 0.159015 7.93841 0.403396 7.58735Z" fill="#BE352E"/>
<path fill-rule="evenodd" clip-rule="evenodd" d="M15.5003 2.13263C12.4772 2.13263 9.99472 4.63484 9.99472 7.76103C9.99472 10.8872 12.4772 13.3894 15.5003 13.3894C18.5234 13.3894 21.0059 10.8872 21.0059 7.76103C21.0059 4.63484 18.5234 2.13263 15.5003 2.13263ZM7.99472 7.76103C7.99472 3.56569 11.3375 0.132629 15.5003 0.132629C19.6631 0.132629 23.0059 3.56569 23.0059 7.76103C23.0059 11.9564 19.6631 15.3894 15.5003 15.3894C11.3375 15.3894 7.99472 11.9564 7.99472 7.76103Z" fill="#BE352E"/>
</svg>
