<svg width="31" height="34" viewBox="0 0 31 34" fill="none" xmlns="http://www.w3.org/2000/svg">
<path fill-rule="evenodd" clip-rule="evenodd" d="M0.52709 0.118891C0.851662 -0.0553138 1.24573 -0.0369717 1.55271 0.166629L10.6723 6.21494L20.0019 3.03338C20.3043 2.93026 20.6378 2.97783 20.8992 3.1614L30.159 9.66181C30.4257 9.84903 30.5844 10.1544 30.5844 10.4803V32.5969C30.5844 32.9659 30.3812 33.3049 30.0558 33.4788C29.7304 33.6528 29.3356 33.6333 29.0288 33.4283L20.1946 27.5247L11.0119 30.9505C10.7005 31.0666 10.3518 31.0205 10.0814 30.8275L0.419026 23.9305C0.156076 23.7429 0 23.4397 0 23.1166V1C0 0.631634 0.202518 0.293095 0.52709 0.118891ZM2 2.86317V22.6018L10.8107 28.8909L19.9751 25.472C20.2763 25.3596 20.6131 25.3989 20.8803 25.5775L28.5844 30.7259V11.0001L20.1662 5.09044L10.8522 8.26666C10.5587 8.36677 10.2353 8.32499 9.97677 8.15355L2 2.86317Z" fill="white"/>
<path fill-rule="evenodd" clip-rule="evenodd" d="M10.6621 6.18396C11.2144 6.18396 11.6621 6.63168 11.6621 7.18396V29.613C11.6621 30.1653 11.2144 30.613 10.6621 30.613C10.1098 30.613 9.66211 30.1653 9.66211 29.613V7.18396C9.66211 6.63168 10.1098 6.18396 10.6621 6.18396Z" fill="white"/>
<path fill-rule="evenodd" clip-rule="evenodd" d="M20.3242 2.97986C20.8765 2.97986 21.3242 3.42757 21.3242 3.97986V26.4089C21.3242 26.9612 20.8765 27.4089 20.3242 27.4089C19.7719 27.4089 19.3242 26.9612 19.3242 26.4089V3.97986C19.3242 3.42757 19.7719 2.97986 20.3242 2.97986Z" fill="white"/>
</svg>
