<svg width="28" height="28" viewBox="0 0 28 28" fill="none" xmlns="http://www.w3.org/2000/svg">
<path d="M19.759 27.4698H7.71078C3.45913 27.4698 0 24.0106 0 19.759V7.71078C0 3.45913 3.45913 0 7.71078 0H19.759C24.0106 0 27.4698 3.45913 27.4698 7.71078V19.759C27.4698 24.0106 24.0106 27.4698 19.759 27.4698ZM7.71078 2.48759C4.82973 2.48759 2.48759 4.83159 2.48759 7.71078V19.759C2.48759 22.64 4.83159 24.9822 7.71078 24.9822H19.759C22.64 24.9822 24.9822 22.6382 24.9822 19.759V7.71078C24.9822 4.82973 22.6382 2.48759 19.759 2.48759H7.71078Z" fill="#BE352E"/>
<path d="M13.7357 20.8684C9.80295 20.8684 6.60303 17.6685 6.60303 13.7357C6.60303 9.80295 9.80295 6.60303 13.7357 6.60303C17.6685 6.60303 20.8684 9.80295 20.8684 13.7357C20.8684 17.6685 17.6685 20.8684 13.7357 20.8684ZM13.7357 9.08875C11.1736 9.08875 9.08875 11.1736 9.08875 13.7357C9.08875 16.2979 11.1736 18.3827 13.7357 18.3827C16.2979 18.3827 18.3827 16.2979 18.3827 13.7357C18.3827 11.1736 16.2979 9.08875 13.7357 9.08875Z" fill="#BE352E"/>
<path d="M22.7557 6.36835C22.7557 7.27649 22.0192 8.01307 21.111 8.01307C20.2029 8.01307 19.4663 7.27649 19.4663 6.36835C19.4663 5.46021 20.2029 4.72363 21.111 4.72363C22.0192 4.72363 22.7557 5.46021 22.7557 6.36835Z" fill="#BE352E"/>
</svg>
