<svg width="18" height="19" viewBox="0 0 18 19" fill="none" xmlns="http://www.w3.org/2000/svg">
<path fill-rule="evenodd" clip-rule="evenodd" d="M2.74974 0.399902C2.90895 0.399878 3.06164 0.463129 3.17419 0.575728L6.97092 4.37406C7.14246 4.54568 7.19375 4.80373 7.10087 5.02791C7.06421 5.11638 7.00795 5.1927 6.93834 5.25268L5.18366 7.00918C5.13595 7.05695 5.11465 7.13099 5.13239 7.20075C5.13236 7.20064 5.13242 7.20086 5.13239 7.20075L5.19058 7.42676C5.53289 8.75188 6.22406 9.96012 7.19067 10.9277C8.20718 11.9453 9.4878 12.6566 10.8872 12.9797L10.8906 12.9805C10.9514 12.995 11.0219 12.9763 11.0707 12.9275L12.8674 11.1289C12.9799 11.0162 13.1327 10.9529 13.2919 10.9529C13.4511 10.9529 13.6038 11.0162 13.7164 11.1289L17.721 15.1377C17.9551 15.372 17.9551 15.7515 17.721 15.9858L16.5473 17.1607C15.8303 17.8757 14.8407 18.2502 13.8307 18.1885C13.8304 18.1885 13.8309 18.1885 13.8307 18.1885L13.6289 18.1769L13.6259 18.1767C10.1152 17.957 6.80477 16.461 4.316 13.9697C1.77599 11.427 0.274506 8.02805 0.103799 4.43648M5.69718 4.7972L2.74997 1.84874L1.98273 2.61677C1.51804 3.08195 1.27082 3.72211 1.30241 4.37881C1.45889 7.67277 2.83592 10.7901 5.16497 13.1216C7.44689 15.4059 10.4816 16.7773 13.6994 16.9789C13.6999 16.979 13.7004 16.979 13.7009 16.979L13.9011 16.9905L13.9034 16.9907C14.5706 17.0316 15.2254 16.7841 15.6998 16.3112C15.6997 16.3113 15.6999 16.3111 15.6998 16.3112L16.4485 15.5618L13.2919 12.4019L11.9196 13.7756C11.581 14.1145 11.0868 14.2597 10.6155 14.1486M2.74974 0.399902C2.59054 0.399927 2.43787 0.463225 2.32535 0.575859L2.74974 0.399902ZM2.32535 0.575859L1.13376 1.76869L2.32535 0.575859ZM1.13376 1.76869C0.430317 2.47286 0.0560606 3.44207 0.103799 4.43648L1.13376 1.76869Z" fill="#399CA2"/>
</svg>
