<svg width="26" height="35" viewBox="0 0 26 35" fill="none" xmlns="http://www.w3.org/2000/svg">
<path d="M12.7772 1C19.2853 1 24.5584 6.1753 24.5584 12.5538C24.5584 14.8765 23.7988 16.996 22.6613 18.8486C20.045 23.0996 12.7813 33.6096 12.7813 33.6096C12.7813 33.6096 5.51344 23.0956 2.89719 18.8486C1.75969 17 1 14.8765 1 12.5538C0.99594 6.1753 6.27313 1 12.7772 1Z" stroke="white" stroke-width="2" stroke-linecap="round" stroke-linejoin="round"/>
<path d="M12.7773 17.705C15.6941 17.705 18.0586 15.3862 18.0586 12.5257C18.0586 9.66528 15.6941 7.34644 12.7773 7.34644C9.86059 7.34644 7.49609 9.66528 7.49609 12.5257C7.49609 15.3862 9.86059 17.705 12.7773 17.705Z" stroke="white" stroke-width="2" stroke-linecap="round" stroke-linejoin="round"/>
</svg>
