<svg width="31" height="25" viewBox="0 0 31 25" fill="none" xmlns="http://www.w3.org/2000/svg">
<path d="M0.469727 22.1707C13.7193 30.1957 28.0157 19.9725 27.4922 6.25247C28.5448 5.44653 29.541 4.3885 30.4697 3.02299C29.4435 3.43551 28.4191 3.72198 27.3947 3.78882C28.6236 2.87212 29.3947 1.77398 29.6198 0.458123C28.4435 1.23732 27.1864 1.8179 25.7924 2.02416C21.3346 -2.546 14.1958 1.1743 15.1283 7.68482C9.89562 7.31814 5.74552 4.992 2.49787 1.02533C0.878732 4.2319 1.45284 7.05077 4.03633 9.51632C3.15453 9.42083 2.35528 9.14964 1.61607 8.75049C1.45847 12.0411 3.44909 13.8497 6.22958 15.1101C5.41907 15.2648 4.60106 15.2916 3.77554 15.2094C4.42657 17.8908 6.49224 19.1532 9.37029 19.6058C6.83746 21.5424 3.83746 22.3139 0.471603 22.1707H0.469727Z" fill="#BE352E"/>
</svg>
