<svg width="35" height="25" viewBox="0 0 35 25" fill="none" xmlns="http://www.w3.org/2000/svg">
<path d="M34.2164 5.60871C34.0193 2.83882 31.9079 0.630849 29.2434 0.409425C26.6273 0.192179 22.8307 0 17.4697 0C12.1087 0 8.31418 0.192179 5.69601 0.409425C3.0336 0.630849 0.922175 2.83882 0.723098 5.60871C0.570271 7.74566 0.469727 10.0831 0.469727 12.5C0.469727 14.9169 0.570271 17.2543 0.723098 19.3913C0.920164 22.1612 3.03159 24.3692 5.69601 24.5906C8.31217 24.8078 12.1087 25 17.4697 25C22.8307 25 26.6273 24.8078 29.2434 24.5906C31.9079 24.3692 34.0193 22.1612 34.2164 19.3913C34.3692 17.2543 34.4697 14.9169 34.4697 12.5C34.4697 10.0831 34.3692 7.74566 34.2164 5.60871ZM14.194 17.9186V7.08347L22.885 12.523L14.194 17.9165V17.9186Z" fill="#BE352E"/>
</svg>
