<svg width="28" height="29" viewBox="0 0 28 29" fill="none" xmlns="http://www.w3.org/2000/svg">
<path fill-rule="evenodd" clip-rule="evenodd" d="M13.9999 21.7559C13.4476 21.7559 12.9999 21.3081 12.9999 20.7559L12.9999 12.8534C12.9999 12.3011 13.4476 11.8534 13.9999 11.8534C14.5522 11.8534 14.9999 12.3011 14.9999 12.8534L14.9999 20.7559C14.9999 21.3081 14.5522 21.7559 13.9999 21.7559Z" fill="white"/>
<path fill-rule="evenodd" clip-rule="evenodd" d="M13.9999 10.2319C13.4476 10.2319 12.9999 9.78422 12.9999 9.23193L12.9999 8.24413C12.9999 7.69184 13.4476 7.24413 13.9999 7.24413C14.5522 7.24413 14.9999 7.69184 14.9999 8.24413L14.9999 9.23193C14.9999 9.78422 14.5522 10.2319 13.9999 10.2319Z" fill="white"/>
<path fill-rule="evenodd" clip-rule="evenodd" d="M14 26.0122C20.0668 26.0122 25.0487 20.8939 25.0487 14.5C25.0487 8.1061 20.0668 2.98782 14 2.98782C7.93312 2.98782 2.95117 8.10609 2.95117 14.5C2.95117 20.8939 7.93312 26.0122 14 26.0122ZM27.0487 14.5C27.0487 21.9267 21.2418 28.0122 14 28.0122C6.75807 28.0122 0.951172 21.9267 0.951173 14.5C0.951174 7.07334 6.75808 0.987816 14 0.987817C21.2418 0.987817 27.0487 7.07334 27.0487 14.5Z" fill="white"/>
</svg>
