<svg width="18" height="14" viewBox="0 0 18 14" fill="none" xmlns="http://www.w3.org/2000/svg">
<path fill-rule="evenodd" clip-rule="evenodd" d="M0.399994 0.999902C0.399994 0.668532 0.668623 0.399902 0.999994 0.399902H16.8945C17.2259 0.399902 17.4945 0.668532 17.4945 0.999902V12.5559C17.4945 12.8872 17.2259 13.1559 16.8945 13.1559H0.999994C0.668623 13.1559 0.399994 12.8872 0.399994 12.5559V0.999902ZM1.59999 1.5999V11.9559H16.2945V1.5999H1.59999Z" fill="#BE352E"/>
<path fill-rule="evenodd" clip-rule="evenodd" d="M0.560767 0.591153C0.786515 0.348574 1.16617 0.334929 1.40875 0.560676L8.94726 7.5761L16.4858 0.560676C16.7283 0.334929 17.108 0.348574 17.3337 0.591153C17.5595 0.833732 17.5458 1.21339 17.3033 1.43913L9.35601 8.83495C9.12566 9.04931 8.76885 9.04931 8.5385 8.83495L0.591245 1.43913C0.348665 1.21339 0.33502 0.833732 0.560767 0.591153Z" fill="#BE352E"/>
<path fill-rule="evenodd" clip-rule="evenodd" d="M6.96235 5.86772C7.2097 6.08822 7.23146 6.4675 7.01095 6.71485L1.44787 12.9551C1.22736 13.2024 0.848082 13.2242 0.600732 13.0037C0.353382 12.7832 0.331623 12.4039 0.552133 12.1565L6.11521 5.91631C6.33572 5.66896 6.715 5.64721 6.96235 5.86772Z" fill="#BE352E"/>
<path fill-rule="evenodd" clip-rule="evenodd" d="M10.9323 5.86772C11.1797 5.64721 11.559 5.66896 11.7795 5.91631L17.3426 12.1565C17.5631 12.4039 17.5413 12.7832 17.294 13.0037C17.0466 13.2242 16.6673 13.2024 16.4468 12.9551L10.8837 6.71485C10.6632 6.4675 10.685 6.08822 10.9323 5.86772Z" fill="#BE352E"/>
</svg>
