<svg width="20" height="26" viewBox="0 0 20 26" fill="none" xmlns="http://www.w3.org/2000/svg">
<path fill-rule="evenodd" clip-rule="evenodd" d="M0 1C0 0.447715 0.447715 0 1 0H10.9C11.4523 0 11.9 0.447715 11.9 1C11.9 1.55228 11.4523 2 10.9 2H2V23.9999H18V9.09998C18 8.5477 18.4477 8.09998 19 8.09998C19.5522 8.09998 20 8.5477 20 9.09998V24.9999C20 25.5522 19.5522 25.9999 19 25.9999H1C0.447715 25.9999 0 25.5522 0 24.9999V1Z" fill="white"/>
<path fill-rule="evenodd" clip-rule="evenodd" d="M10.5174 0.0761497C10.8911 -0.0786313 11.3212 0.00692445 11.6072 0.292922L19.7072 8.3929C19.9932 8.6789 20.0787 9.10902 19.9239 9.48269C19.7692 9.85637 19.4045 10.1 19.0001 10.1H10.9001C10.3478 10.1 9.90009 9.65229 9.90009 9.10001V1.00003C9.90009 0.595567 10.1437 0.230931 10.5174 0.0761497ZM11.9001 3.41424V8.10001H16.5859L11.9001 3.41424Z" fill="white"/>
</svg>
