<svg width="27" height="22" viewBox="0 0 27 22" fill="none" xmlns="http://www.w3.org/2000/svg">
<path fill-rule="evenodd" clip-rule="evenodd" d="M9.42862 1.9001C6.79109 1.9001 4.66682 4.01691 4.66682 6.61109C4.66682 9.20527 6.79109 11.3221 9.42862 11.3221C12.0662 11.3221 14.1904 9.20527 14.1904 6.61109C14.1904 4.01691 12.0662 1.9001 9.42862 1.9001ZM2.86682 6.61109C2.86682 3.00754 5.8123 0.100098 9.42862 0.100098C13.0449 0.100098 15.9904 3.00754 15.9904 6.61109C15.9904 10.2146 13.0449 13.1221 9.42862 13.1221C5.8123 13.1221 2.86682 10.2146 2.86682 6.61109Z" fill="#399CA2"/>
<path fill-rule="evenodd" clip-rule="evenodd" d="M5.74059 9.79463C6.00205 10.2174 5.87131 10.772 5.44858 11.0335C3.31244 12.3547 1.90022 14.6957 1.90022 17.3616V19.3024H16.9602V17.3616C16.9602 14.7308 15.5834 12.4151 13.4961 11.0866C13.0768 10.8197 12.9532 10.2634 13.2201 9.84409C13.487 9.42477 14.0433 9.3012 14.4626 9.56809C17.0426 11.2102 18.7602 14.0848 18.7602 17.3616V20.2024C18.7602 20.6994 18.3573 21.1024 17.8602 21.1024H1.00022C0.503163 21.1024 0.10022 20.6994 0.10022 20.2024V17.3616C0.10022 14.0409 1.86225 11.1352 4.50174 9.50262C4.92447 9.24116 5.47912 9.37189 5.74059 9.79463Z" fill="#399CA2"/>
<path fill-rule="evenodd" clip-rule="evenodd" d="M19.188 5.66157C17.3703 5.66157 15.9107 7.1197 15.9107 8.90134C15.9107 10.683 17.3703 12.1411 19.188 12.1411C21.0056 12.1411 22.4652 10.683 22.4652 8.90134C22.4652 7.1197 21.0056 5.66157 19.188 5.66157ZM14.1107 8.90134C14.1107 6.11032 16.3915 3.86157 19.188 3.86157C21.9844 3.86157 24.2652 6.11032 24.2652 8.90134C24.2652 11.6924 21.9844 13.9411 19.188 13.9411C16.3915 13.9411 14.1107 11.6924 14.1107 8.90134Z" fill="#399CA2"/>
<path fill-rule="evenodd" clip-rule="evenodd" d="M21.7877 11.1605C22.0544 10.741 22.6106 10.6171 23.0301 10.8837C25.0016 12.1367 26.311 14.3342 26.311 16.8363V18.9316C26.311 19.4287 25.908 19.8316 25.411 19.8316H21.5927C21.0957 19.8316 20.6927 19.4287 20.6927 18.9316C20.6927 18.4346 21.0957 18.0316 21.5927 18.0316H24.511V16.8363C24.511 14.9784 23.5408 13.3411 22.0645 12.4028C21.6451 12.1362 21.5211 11.58 21.7877 11.1605Z" fill="#399CA2"/>
</svg>
