<svg width="19" height="19" viewBox="0 0 19 19" fill="none" xmlns="http://www.w3.org/2000/svg">
<path fill-rule="evenodd" clip-rule="evenodd" d="M9.52444 1.5999C5.14791 1.5999 1.60002 5.14778 1.60002 9.52432C1.60002 13.9008 5.14791 17.4487 9.52444 17.4487C13.901 17.4487 17.4489 13.9008 17.4489 9.52432C17.4489 5.14778 13.901 1.5999 9.52444 1.5999ZM0.400024 9.52432C0.400024 4.48504 4.48516 0.399902 9.52444 0.399902C14.5637 0.399902 18.6489 4.48504 18.6489 9.52432C18.6489 14.5636 14.5637 18.6487 9.52444 18.6487C4.48516 18.6487 0.400024 14.5636 0.400024 9.52432Z" fill="#399CA2"/>
<path fill-rule="evenodd" clip-rule="evenodd" d="M6.67252 3.77837C5.90597 5.21804 5.4135 7.24841 5.4135 9.52432C5.4135 11.8002 5.90597 13.8306 6.67252 15.2703C7.45295 16.736 8.42877 17.4487 9.35163 17.4487C9.683 17.4487 9.95163 17.7174 9.95163 18.0487C9.95163 18.3801 9.683 18.6487 9.35163 18.6487C7.76876 18.6487 6.47552 17.4536 5.61331 15.8342C4.73723 14.1889 4.2135 11.957 4.2135 9.52432C4.2135 7.09161 4.73723 4.85977 5.61331 3.21439C6.47552 1.59506 7.76876 0.399902 9.35163 0.399902C9.683 0.399902 9.95163 0.668532 9.95163 0.999902C9.95163 1.33127 9.683 1.5999 9.35163 1.5999C8.42877 1.5999 7.45295 2.31264 6.67252 3.77837Z" fill="#399CA2"/>
<path fill-rule="evenodd" clip-rule="evenodd" d="M9.09723 0.999902C9.09723 0.668532 9.36586 0.399902 9.69723 0.399902C11.2801 0.399902 12.5733 1.59506 13.4355 3.21439C14.3116 4.85977 14.8354 7.09161 14.8354 9.52432C14.8354 11.957 14.3116 14.1889 13.4355 15.8342C12.5733 17.4536 11.2801 18.6487 9.69723 18.6487C9.36586 18.6487 9.09723 18.3801 9.09723 18.0487C9.09723 17.7174 9.36586 17.4487 9.69723 17.4487C10.6201 17.4487 11.5959 16.736 12.3763 15.2703C13.1429 13.8306 13.6354 11.8002 13.6354 9.52432C13.6354 7.24841 13.1429 5.21804 12.3763 3.77837C11.5959 2.31264 10.6201 1.5999 9.69723 1.5999C9.36586 1.5999 9.09723 1.33127 9.09723 0.999902Z" fill="#399CA2"/>
<path fill-rule="evenodd" clip-rule="evenodd" d="M2.65467 3.69903C2.82924 3.41737 3.19909 3.33056 3.48075 3.50513C4.92711 4.40159 7.17035 4.99887 9.63648 4.99887C12.1025 4.99887 14.2749 4.42177 15.722 3.54852C16.0058 3.37731 16.3745 3.46852 16.5457 3.75223C16.717 4.03595 16.6258 4.40473 16.342 4.57594C14.6665 5.58703 12.2671 6.19887 9.63648 6.19887C7.00591 6.19887 4.52932 5.56684 2.84857 4.52511C2.56691 4.35054 2.4801 3.98069 2.65467 3.69903Z" fill="#399CA2"/>
<path fill-rule="evenodd" clip-rule="evenodd" d="M9.63648 14.0523C7.13097 14.0523 4.92778 14.6492 3.48075 15.546C3.19909 15.7206 2.82924 15.6338 2.65467 15.3521C2.4801 15.0705 2.56691 14.7006 2.84857 14.5261C4.52865 13.4847 6.96453 12.8523 9.63648 12.8523C12.2261 12.8523 14.5914 13.4459 16.2623 14.4292C16.5479 14.5973 16.6432 14.965 16.4751 15.2506C16.307 15.5362 15.9393 15.6315 15.6537 15.4634C14.2065 14.6118 12.0628 14.0523 9.63648 14.0523Z" fill="#399CA2"/>
<path fill-rule="evenodd" clip-rule="evenodd" d="M9.5245 0.399902C9.85587 0.399902 10.1245 0.668532 10.1245 0.999902V18.0487C10.1245 18.3801 9.85587 18.6487 9.5245 18.6487C9.19313 18.6487 8.9245 18.3801 8.9245 18.0487V0.999902C8.9245 0.668532 9.19313 0.399902 9.5245 0.399902Z" fill="#399CA2"/>
<path fill-rule="evenodd" clip-rule="evenodd" d="M0.400024 9.52432C0.400024 9.19295 0.668654 8.92432 1.00002 8.92432H18.0489C18.3802 8.92432 18.6489 9.19295 18.6489 9.52432C18.6489 9.85569 18.3802 10.1243 18.0489 10.1243H1.00002C0.668654 10.1243 0.400024 9.85569 0.400024 9.52432Z" fill="#399CA2"/>
</svg>
