<svg width="26" height="26" viewBox="0 0 26 26" fill="none" xmlns="http://www.w3.org/2000/svg">
<path d="M10.9806 25.9956C10.7693 25.9956 10.5581 25.916 10.3989 25.7541L8.13789 23.4931C7.82233 23.1775 7.81684 22.6699 8.12142 22.3461C9.30681 21.0921 9.27937 19.1549 8.06106 17.9338C6.84274 16.7155 4.90276 16.6881 3.64878 17.8734C3.32499 18.178 2.81736 18.1725 2.5018 17.857L0.240782 15.596C-0.0802607 15.2749 -0.0802607 14.7536 0.240782 14.4325L14.4298 0.240782C14.7508 -0.0802607 15.2722 -0.0802607 15.5932 0.240782L17.8542 2.5018C18.0106 2.65821 18.0984 2.87224 18.0957 3.09175C18.0957 3.31401 18.0024 3.5253 17.8405 3.67621C17.8186 3.69817 17.7966 3.71737 17.7747 3.73658C16.5344 4.97411 16.5344 6.98542 17.7692 8.22021C19.004 9.45499 21.0153 9.45499 22.25 8.22021C22.272 8.19551 22.2912 8.17356 22.3104 8.15161C22.4641 7.98971 22.6754 7.89642 22.8976 7.89367C23.1254 7.88819 23.3339 7.97874 23.4903 8.13514L25.7513 10.3962C25.905 10.5498 25.9928 10.7611 25.9928 10.9779C25.9928 11.1947 25.905 11.4059 25.7513 11.5596L11.5596 25.7513C11.3977 25.9132 11.1892 25.9928 10.9779 25.9928L10.9806 25.9956ZM9.81993 22.8482L10.9806 24.0089L24.0062 10.9834L22.8757 9.85286C20.9906 11.2495 18.3125 11.0959 16.6057 9.38913C14.899 7.68239 14.7453 5.00155 16.142 3.11919L15.0115 1.98868L1.98594 15.0142L3.14663 16.1749C5.02899 14.9045 7.5644 15.1103 9.22449 16.7704C10.8846 18.4305 11.0904 20.9686 9.81993 22.8482Z" fill="white"/>
<path d="M10.3347 9.54836C10.1179 9.54836 9.9066 9.45781 9.75294 9.30689C9.71453 9.26847 9.6816 9.22732 9.65142 9.18067C9.62123 9.13676 9.59654 9.08737 9.57459 9.03798C9.55538 8.98859 9.53891 8.93646 9.52794 8.88432C9.51696 8.83219 9.51147 8.77731 9.51147 8.72517C9.51147 8.5084 9.59928 8.29437 9.75294 8.14071C9.94502 7.95138 10.2276 7.86357 10.4966 7.9157C10.5487 7.92668 10.6008 7.94314 10.6502 7.96235C10.6996 7.9843 10.7463 8.009 10.7929 8.03918C10.8368 8.06937 10.878 8.10229 10.9164 8.14071C11.07 8.29437 11.1578 8.50565 11.1578 8.72517C11.1578 8.77731 11.1524 8.83219 11.1414 8.88432C11.1332 8.93646 11.1167 8.98859 11.0947 9.03798C11.0755 9.08737 11.0481 9.13676 11.0207 9.18067C10.9905 9.22732 10.9548 9.26847 10.9164 9.30689C10.878 9.34256 10.8368 9.37823 10.7929 9.40842C10.7463 9.4386 10.6996 9.4633 10.6502 9.48525C10.6008 9.50445 10.5487 9.52092 10.4966 9.53189C10.4417 9.54287 10.3895 9.54836 10.3347 9.54836Z" fill="white"/>
<path d="M14.3467 13.8974C14.0256 13.5764 14.0256 13.055 14.3467 12.734C14.6677 12.413 15.1891 12.413 15.5101 12.734C15.8312 13.055 15.8312 13.5764 15.5101 13.8974C15.3482 14.0593 15.1397 14.1389 14.9284 14.1389C14.7171 14.1389 14.5086 14.0593 14.3467 13.8974ZM12.05 11.6035C11.7289 11.2797 11.7289 10.7584 12.05 10.4373C12.371 10.1163 12.8924 10.1163 13.2134 10.4373C13.5345 10.7584 13.5345 11.2797 13.2134 11.6035C13.0543 11.7626 12.843 11.8422 12.6317 11.8422C12.4204 11.8422 12.2119 11.7626 12.05 11.6035Z" fill="white"/>
<path d="M17.2258 16.4358C17.009 16.4358 16.7977 16.3479 16.6441 16.1943C16.4904 16.0434 16.4026 15.8293 16.4026 15.6126C16.4026 15.5604 16.4081 15.5056 16.4191 15.4534C16.4273 15.3985 16.4437 15.3491 16.4657 15.297C16.4849 15.2476 16.5123 15.201 16.5398 15.1571C16.57 15.1104 16.6056 15.0693 16.6441 15.0308C16.8361 14.8388 17.1188 14.7537 17.3877 14.8058C17.4398 14.8168 17.4919 14.8333 17.5413 14.8525C17.5907 14.8744 17.6374 14.8991 17.6813 14.9293C17.7279 14.9595 17.7691 14.9924 17.8075 15.0308C17.8459 15.0693 17.8788 15.1104 17.909 15.1571C17.9392 15.201 17.9639 15.2476 17.9859 15.297C18.0051 15.3491 18.0215 15.3985 18.0325 15.4534C18.0435 15.5056 18.049 15.5604 18.049 15.6126C18.049 15.8293 17.9612 16.0434 17.8075 16.1943C17.7691 16.2327 17.7279 16.2684 17.6813 16.2986C17.6374 16.326 17.5907 16.3534 17.5413 16.3726C17.4919 16.3946 17.4398 16.4083 17.3877 16.4193C17.3328 16.4303 17.2807 16.4358 17.2258 16.4358Z" fill="white"/>
</svg>
